<svg width="40" height="40" viewBox="0 0 40 40" fill="none" xmlns="http://www.w3.org/2000/svg">
  <!-- Background Circle with Gradient -->
  <circle cx="20" cy="20" r="18" fill="url(#iconGradient)" stroke="#1d4ed8" stroke-width="2"/>

  <!-- Modern Dollar Sign -->
  <path d="M20 8 L20 32" stroke="white" stroke-width="2.5" stroke-linecap="round"/>
  <path d="M15 12 C15 10 17 10 20 10 C23 10 25 10 25 12 C25 14 23 14 20 14 L18 14 C15 14 13 16 13 18 C13 20 15 20 18 20 L22 20 C25 20 27 22 27 24 C27 26 25 26 22 26 L20 26 C17 26 15 26 15 28"
        stroke="white" stroke-width="2.5" fill="none" stroke-linecap="round" stroke-linejoin="round"/>

  <!-- Gradient Definition -->
  <defs>
    <linearGradient id="iconGradient" x1="0%" y1="0%" x2="100%" y2="100%">
      <stop offset="0%" style="stop-color:#3b82f6;stop-opacity:1" />
      <stop offset="50%" style="stop-color:#1e40af;stop-opacity:1" />
      <stop offset="100%" style="stop-color:#1e3a8a;stop-opacity:1" />
    </linearGradient>
  </defs>
</svg>
