<svg width="200" height="60" viewBox="0 0 200 60" fill="none" xmlns="http://www.w3.org/2000/svg">
  <!-- Background Circle -->
  <circle cx="30" cy="30" r="25" fill="url(#gradient1)" stroke="#1e40af" stroke-width="2"/>

  <!-- Cash/Money Symbol -->
  <path d="M20 20 L25 15 L35 15 L40 20 L35 25 L25 25 Z" fill="white" opacity="0.9"/>
  <path d="M20 35 L25 30 L35 30 L40 35 L35 40 L25 40 Z" fill="white" opacity="0.7"/>

  <!-- AI Circuit Pattern (without yellow dots) -->
  <path d="M22 22 L38 22 M22 38 L38 38 M22 22 L22 38 M38 22 L38 38" stroke="#e5e7eb" stroke-width="1" opacity="0.6"/>

  <!-- Tracking Lines -->
  <path d="M15 30 Q30 25 45 30" stroke="white" stroke-width="2" fill="none" opacity="0.8"/>

  <!-- Text -->
  <text x="70" y="25" font-family="Arial, sans-serif" font-size="20" font-weight="bold" fill="#1e40af">CASH</text>
  <text x="70" y="45" font-family="Arial, sans-serif" font-size="20" font-weight="bold" fill="#059669">TRACK</text>

  <!-- AI Badge -->
  <rect x="140" y="15" width="25" height="12" rx="6" fill="#8b5cf6"/>
  <text x="152.5" y="23" font-family="Arial, sans-serif" font-size="8" font-weight="bold" fill="white" text-anchor="middle">AI</text>

  <!-- Gradients -->
  <defs>
    <linearGradient id="gradient1" x1="0%" y1="0%" x2="100%" y2="100%">
      <stop offset="0%" style="stop-color:#3b82f6;stop-opacity:1" />
      <stop offset="50%" style="stop-color:#1e40af;stop-opacity:1" />
      <stop offset="100%" style="stop-color:#1e3a8a;stop-opacity:1" />
    </linearGradient>
  </defs>
</svg>
