<?xml version="1.0" standalone="no"?>
<!DOCTYPE svg PUBLIC "-//W3C//DTD SVG 20010904//EN"
 "http://www.w3.org/TR/2001/REC-SVG-20010904/DTD/svg10.dtd">
<svg version="1.0" xmlns="http://www.w3.org/2000/svg"
 width="235.000000pt" height="151.000000pt" viewBox="0 0 235.000000 151.000000"
 preserveAspectRatio="xMidYMid meet">

<g transform="translate(0.000000,151.000000) scale(0.100000,-0.100000)"
fill="#000000" stroke="none">
<path d="M1465 1389 c-110 -97 -21 -269 124 -238 105 22 138 161 57 237 -31
28 -43 32 -91 32 -46 0 -59 -4 -90 -31z"/>
<path d="M1097 1236 c4 -6 27 -42 51 -80 97 -150 145 -301 145 -461 1 -187
-54 -318 -192 -455 -73 -73 -102 -94 -191 -138 -113 -55 -109 -61 21 -37 338
63 575 244 736 564 58 115 122 316 152 477 l8 43 -44 -38 c-73 -65 -105 -76
-213 -76 -83 1 -105 5 -177 33 -45 18 -131 66 -192 106 -60 40 -107 68 -104
62z"/>
<path d="M910 1010 c0 -5 5 -10 11 -10 5 0 7 5 4 10 -3 6 -8 10 -11 10 -2 0
-4 -4 -4 -10z"/>
<path d="M650 816 c0 -9 5 -16 10 -16 6 0 10 4 10 9 0 6 -4 13 -10 16 -5 3
-10 -1 -10 -9z"/>
<path d="M537 690 c-83 -46 -100 -60 -69 -60 38 0 153 -47 209 -86 30 -21 75
-62 99 -92 24 -30 44 -52 44 -50 0 21 -37 122 -58 158 -26 46 -114 145 -142
160 -10 5 -38 -5 -83 -30z"/>
<path d="M1142 640 c0 -14 2 -19 5 -12 2 6 2 18 0 25 -3 6 -5 1 -5 -13z"/>
<path d="M830 568 c0 -4 4 -8 9 -8 6 0 12 4 15 8 3 5 -1 9 -9 9 -8 0 -15 -4
-15 -9z"/>
</g>
</svg>
