<svg width="32" height="32" viewBox="0 0 32 32" fill="none" xmlns="http://www.w3.org/2000/svg">
  <!-- Background Circle with Gradient -->
  <circle cx="16" cy="16" r="14" fill="url(#faviconGradient)" stroke="#1d4ed8" stroke-width="1"/>

  <!-- Modern Dollar Sign -->
  <path d="M16 6 L16 26" stroke="white" stroke-width="2" stroke-linecap="round"/>
  <path d="M12 9 C12 8 13.5 8 16 8 C18.5 8 20 8 20 9 C20 10.5 18.5 10.5 16 10.5 L14.5 10.5 C12 10.5 10.5 12 10.5 13.5 C10.5 15 12 15 14.5 15 L17.5 15 C20 15 21.5 16.5 21.5 18 C21.5 19.5 20 19.5 17.5 19.5 L16 19.5 C13.5 19.5 12 19.5 12 21"
        stroke="white" stroke-width="2" fill="none" stroke-linecap="round" stroke-linejoin="round"/>

  <!-- Gradient Definition -->
  <defs>
    <linearGradient id="faviconGradient" x1="0%" y1="0%" x2="100%" y2="100%">
      <stop offset="0%" style="stop-color:#3b82f6;stop-opacity:1" />
      <stop offset="50%" style="stop-color:#1e40af;stop-opacity:1" />
      <stop offset="100%" style="stop-color:#1e3a8a;stop-opacity:1" />
    </linearGradient>
  </defs>
</svg>
